<svg width="36" height="36" viewBox="0 0 36 36" fill="none" xmlns="http://www.w3.org/2000/svg">
<path d="M14.3333 34.3425V21.0092M14.3333 21.0092L1.41667 12.9259M14.3333 21.0092L33.95 9.5592M32.8667 8.34253L22.7833 1.57587C22.2525 1.21532 21.6288 1.01567 20.9873 1.00088C20.3457 0.986103 19.7136 1.15682 19.1667 1.49253L2.58334 11.6925C2.09987 11.9908 1.70063 12.4076 1.42352 12.9035C1.14642 13.3993 1.00063 13.9578 1 14.5259V24.2259C0.999181 24.7719 1.1325 25.3097 1.38824 25.7921C1.64398 26.2746 2.0143 26.6868 2.46667 26.9925L12.55 33.7759C13.0809 34.1364 13.7045 34.3361 14.346 34.3509C14.9876 34.3656 15.6198 34.1949 16.1667 33.8592L32.75 23.6592C33.2335 23.361 33.6327 22.9441 33.9098 22.4483C34.1869 21.9524 34.3327 21.3939 34.3333 20.8259V11.1092C34.3342 10.5632 34.2008 10.0253 33.9451 9.54292C33.6894 9.06051 33.319 8.6483 32.8667 8.34253Z" stroke="#4948E1" stroke-width="2" stroke-linecap="round" stroke-linejoin="round"/>
</svg>
